<svg height="512" viewBox="0 0 512 512" width="512" xmlns="http://www.w3.org/2000/svg"><g><g fill="#57a4ff"><path d="m200 208h-56v-56h48.73l27.27-20-20 20z"/><path d="m200 304h-56v-56h48.73l27.27-20-20 20z"/><path d="m200 400h-56v-56h48.73l27.27-20-20 20z"/><path d="m232 64h-40v-48h128v48h-40a24 24 0 0 1 -48 0z"/><path d="m424 16v480h-336v-480h24v456h288v-456z"/><path d="m192.73 152 27.27-20-20 20v56h-56v-56z"/><path d="m192.73 248 27.27-20-20 20v56h-56v-56z"/><path d="m192.73 344 27.27-20-20 20v56h-56v-56z"/><path d="m320 16v48h-40a24 24 0 0 1 -48 0h-40v-48z"/><path d="m320 16v48h-40a24 24 0 0 1 -48 0h-40v-48z"/><path d="m144 152h56v56h-56z"/><path d="m220 132-52 52-8-8 32.73-24z"/><path d="m144 248h56v56h-56z"/><path d="m220 228-52 52-8-8 32.73-24z"/><path d="m144 344h56v56h-56z"/><path d="m220 324-52 52-8-8 32.73-24z"/></g><g fill="#004fac"><path d="m424 8h-336a8 8 0 0 0 -8 8v480a8 8 0 0 0 8 8h336a8 8 0 0 0 8-8v-480a8 8 0 0 0 -8-8zm-224 16h112v32h-32a8 8 0 0 0 -8 8 16 16 0 0 1 -32 0 8 8 0 0 0 -8-8h-32zm-80 0h64v40a8 8 0 0 0 8 8h33.01a32.008 32.008 0 0 0 61.98 0h33.01a8 8 0 0 0 8-8v-40h64v440h-272zm296 464h-320v-464h8v448a8 8 0 0 0 8 8h288a8 8 0 0 0 8-8v-448h8z"/><path d="m144 216h56a8 8 0 0 0 8-8v-52.686l17.657-17.657a8 8 0 1 0 -11.314-11.314l-17.657 17.657h-52.686a8 8 0 0 0 -8 8v56a8 8 0 0 0 8 8zm48-16h-40v-24a7.973 7.973 0 0 0 2.343 5.652l8 8a8 8 0 0 0 11.314 0l18.343-18.338zm-11.313-40-12.687 12.687-2.343-2.344a8 8 0 0 0 -13.657 5.657v-16z"/><path d="m368 144h-136a8 8 0 0 0 0 16h136a8 8 0 0 0 0-16z"/><path d="m232 184h88a8 8 0 0 0 0-16h-88a8 8 0 0 0 0 16z"/><path d="m352 184a8 8 0 0 0 0-16h-8a8 8 0 0 0 0 16z"/><path d="m368 192h-136a8 8 0 0 0 0 16h136a8 8 0 0 0 0-16z"/><path d="m144 312h56a8 8 0 0 0 8-8v-52.686l17.657-17.657a8 8 0 0 0 -11.314-11.314l-17.657 17.657h-52.686a8 8 0 0 0 -8 8v56a8 8 0 0 0 8 8zm48-16h-40v-24a7.973 7.973 0 0 0 2.343 5.652l8 8a8 8 0 0 0 11.314 0l18.343-18.338zm-11.314-40-12.686 12.687-2.343-2.344a8 8 0 0 0 -13.657 5.657v-16z"/><path d="m368 240h-136a8 8 0 0 0 0 16h136a8 8 0 0 0 0-16z"/><path d="m232 280h88a8 8 0 0 0 0-16h-88a8 8 0 0 0 0 16z"/><path d="m352 280a8 8 0 0 0 0-16h-8a8 8 0 0 0 0 16z"/><path d="m368 288h-136a8 8 0 0 0 0 16h136a8 8 0 0 0 0-16z"/><path d="m225.657 329.657a8 8 0 1 0 -11.314-11.314l-17.657 17.657h-52.686a8 8 0 0 0 -8 8v56a8 8 0 0 0 8 8h56a8 8 0 0 0 8-8v-52.686zm-44.971 22.343-12.686 12.687-2.343-2.344a8 8 0 0 0 -13.657 5.657v-16zm11.314 40h-40v-24a7.973 7.973 0 0 0 2.343 5.652l8 8a8 8 0 0 0 11.314 0l18.343-18.338z"/><path d="m368 336h-136a8 8 0 0 0 0 16h136a8 8 0 0 0 0-16z"/><path d="m232 376h88a8 8 0 0 0 0-16h-88a8 8 0 0 0 0 16z"/><path d="m352 376a8 8 0 0 0 0-16h-8a8 8 0 0 0 0 16z"/><path d="m368 384h-136a8 8 0 0 0 0 16h136a8 8 0 0 0 0-16z"/></g></g></svg>