<svg id="Capa_1" enable-background="new 0 0 512 512" height="512" viewBox="0 0 512 512" width="512" xmlns="http://www.w3.org/2000/svg"><g><g fill="#57a4ff"><path d="m24.5 272-8.5 3.09v-3.09z"/><path d="m136 318.73v145.27l-120-48v-140.91z"/><path d="m141.75 88-5.75 2.09v-2.09z"/><path d="m256 133.73v146.27l-6.43-2.57-13.57-5.43-100-40v-141.91z"/><path d="m376 318.73v145.27l-120-48v-144h20l-13.57 5.43z"/><path d="m496 272v3.09l-8.5-3.09z"/><path d="m376 318.73 120-43.64v140.91l-120 48z"/><path d="m376 88v2.09l-5.75-2.09z"/><path d="m376 90.09v141.91l-100 40-13.57 5.43-6.43 2.57v-146.27z"/><path d="m256 272v144l-120 48v-145.27l113.57-41.3-13.57-5.43z"/><g><path d="m256 275.09-6.43 2.34-13.57-5.43-100-40v-.55l111.5 40.55z"/><path d="m256 275.09-6.43 2.34-13.57-5.43-100-40v-.55l111.5 40.55z"/><path d="m376 231.45v.55l-100 40-13.57 5.43-5.8-2.11-.63-.23 8.5-3.09 110.24-40.09z"/></g></g><path d="m504 275.09c0-3.366-2.106-6.371-5.27-7.52l-114.73-41.72v-133.62h-.31c1.161-4.025-1.013-8.258-4.96-9.66l-120-43.63c-1.762-.65-3.698-.65-5.46 0l-120 43.63c-2.56.941-4.466 3.118-5.06 5.78h-.21v137.5l-114.73 41.72c-2.56.941-4.466 3.118-5.06 5.78h-.21v141.82h.2c-.881 3.923 1.29 7.889 5.07 9.26l120 43.63c1.761.653 3.699.653 5.46 0l117.27-42.64 117.27 42.64c1.761.653 3.699.653 5.46 0l120-43.63c2.43-.883 4.282-2.888 4.97-5.38h.3v-141.82s-.006-1.416 0-2.14zm-376 174.03-104-37.81v-124.8l104 37.82zm8-138.91-96.59-35.12 95.96-34.9 96.6 35.13zm112 101.1-104 37.81v-124.79l104-37.82zm0-147.64-104-37.82v-124.34l104 37.82zm-88.59-173.58 96.59-35.12 96.59 35.12-96.59 35.12zm208.59 11.42v124.34l-104 37.82v-124.34zm0 347.61-104-37.81v-124.8l104 37.82zm8-138.91-95.97-34.89 96.6-35.13 95.96 34.9zm112 101.1-104 37.81v-124.79l104-37.82z" fill="#004fac"/></g></svg>