<svg height="512" viewBox="0 0 512 512" width="512" xmlns="http://www.w3.org/2000/svg"><g><g fill="#57a4ff"><path d="m360 32a15.979 15.979 0 0 1 -16 16h-176a16 16 0 1 1 0-32h176a16 16 0 0 1 16 16z"/><path d="m355.32 496h-198.64c-46.87 0-77.84-48.72-57.95-91.16l77.27-164.84v-36l11 .55c16.35 1.81 19.94 7.45 42.33 7.45a79.834 79.834 0 0 0 26.67-4 79.718 79.718 0 0 1 26.66-4c22.39 0 25.98 5.64 42.34 7.45a101.319 101.319 0 0 0 11 .55v28l77.27 164.84c19.89 42.44-11.08 91.16-57.95 91.16z"/><path d="m187 204.55-11-.55a101.319 101.319 0 0 1 11 .55z"/><path d="m336 212a101.319 101.319 0 0 1 -11-.55z"/><path d="m187 204.55-11-.55a101.319 101.319 0 0 1 11 .55z"/><path d="m336 212a101.319 101.319 0 0 1 -11-.55z"/></g><g fill="#004fac"><path d="m200 88h32a8 8 0 0 0 0-16h-32a8 8 0 0 0 0 16z"/><path d="m200 112h32a8 8 0 0 0 0-16h-32a8 8 0 0 0 0 16z"/><path d="m200 136h32a8 8 0 0 0 0-16h-32a8 8 0 0 0 0 16z"/><path d="m420.51 401.44-76.51-163.22v-182.22a24 24 0 0 0 0-48h-176a24 24 0 0 0 0 48v182.22l-76.51 163.22a72 72 0 0 0 65.19 102.56h198.64a72 72 0 0 0 65.19-102.56zm-260.51-369.44a8.011 8.011 0 0 1 8-8h176a8 8 0 0 1 0 16h-176a8.011 8.011 0 0 1 -8-8zm168 24v147.7a71.946 71.946 0 0 1 -16.37-3.36 87.878 87.878 0 0 0 -28.97-4.34 87.807 87.807 0 0 0 -28.96 4.34 72.524 72.524 0 0 1 -24.37 3.66 72.524 72.524 0 0 1 -24.37-3.66 85.781 85.781 0 0 0 -20.96-4.07v-140.27zm74.58 406.04a55.721 55.721 0 0 1 -47.26 25.96h-198.64a56 56 0 0 1 -50.7-79.77l77.26-164.83a8.032 8.032 0 0 0 .76-3.4v-27.7a71.946 71.946 0 0 1 16.37 3.36 87.758 87.758 0 0 0 28.96 4.34 87.758 87.758 0 0 0 28.96-4.34 72.524 72.524 0 0 1 24.37-3.66 72.524 72.524 0 0 1 24.37 3.66 85.878 85.878 0 0 0 20.97 4.07v20.27a8.032 8.032 0 0 0 .76 3.4l77.26 164.83a55.726 55.726 0 0 1 -3.44 53.81z"/><path d="m336 456h-96a8 8 0 0 0 0 16h96a8 8 0 0 0 0-16z"/><path d="m368 456h-8a8 8 0 0 0 0 16h8a8 8 0 0 0 0-16z"/></g></g></svg>