<svg width="384" height="384.008" xmlns="http://www.w3.org/2000/svg">
 <g>
  <title>background</title>
  <rect x="-1" y="-1" width="386" height="386.008" id="canvas_background" fill="none"/>
 </g>

 <g>
  <title>Layer 1</title>
  <path d="m152.875,352l-4.77344,0l-128.10547,-102.48828l-19.99218,24.99219l136.87109,109.5039l27.22656,0l130.39063,-104.32031l0,-175.375l-130.38281,-104.3125l-27.22657,0l-130.39062,104.3125l0,31.38281l130.38281,104.3125l27.22656,0l98.39063,-78.71875l0,103.02344l-109.61719,87.6875zm0,-144l-4.77344,0l-109.60937,-87.6875l0,-0.61719l109.61719,-87.6875l4.77343,0l109.60938,87.6875l0,0.61719l-109.61719,87.6875zm0,0" fill="#1b72db" id="svg_2"/>
 </g>
</svg>