<svg width="384.008" height="384" xmlns="http://www.w3.org/2000/svg">

 <g>
  <title>background</title>
  <rect fill="none" id="canvas_background" height="402" width="582" y="-1" x="-1"/>
 </g>
 <g>
  <title>Layer 1</title>
  <path id="svg_3" fill="#1b72db" d="m0,30.628906l97.375,97.375l-97.367187,97.367188l0,158.632812l158.632812,0l97.367187,-97.367187l97.367188,97.367187l30.632812,0l0,-384l-383.992187,0l-0.015625,30.625zm145.375,321.375l-113.367188,0l0,-113.367187l64,-64l0,113.367187l113.367188,0l-64,64zm110.632812,-96l-128,0l0,-128l128,0l0,128zm96,-224l0,305.367188l-64,-64l0,-177.367188l-177.367187,0l-64,-64l305.367187,0zm0,0"/>
 </g>
</svg>