<svg width="406.4" height="406" xmlns="http://www.w3.org/2000/svg">

 <g>
  <title>background</title>
  <rect fill="none" id="canvas_background" height="402" width="582" y="-1" x="-1"/>
 </g>
 <g>
  <title>Layer 1</title>
  <path id="svg_5" fill="#1b72db" d="m291.199219,-1.800781l-88,64l-88,-64l-115.199219,83.785156l88,64l-88,64l99.199219,72.144531l0,32l104,75.632813l104,-75.632813l0,-32l99.199219,-72.144531l-88,-64l88,-64l-115.199219,-83.785156zm-27.199219,147.785156l-60.800781,44.214844l-60.800781,-44.214844l60.800781,-44.214844l60.800781,44.214844zm-209.601562,-64l60.800781,-44.214844l60.800781,44.214844l-60.800781,44.214844l-60.800781,-44.214844zm60.800781,83.785156l60.800781,44.214844l-23.640625,17.191406l-37.160156,27.023438l-60.800781,-44.214844l60.800781,-44.214844zm160,132.070313l-72,52.367187l-72,-52.367187l0,-15.703125l72,-52.367188l72,52.367188l0,15.703125zm76.800781,-87.855469l-60.800781,44.214844l-37.160157,-27.023438l-23.640624,-17.191406l60.800781,-44.214844l60.800781,44.214844zm-121.601562,-128l60.800781,-44.214844l60.800781,44.214844l-60.800781,44.214844l-60.800781,-44.214844zm0,0"/>
 </g>
</svg>