<svg width="383.78" height="383" xmlns="http://www.w3.org/2000/svg">

 <g>
  <title>background</title>
  <rect fill="none" id="canvas_background" height="402" width="582" y="-1" x="-1"/>
 </g>
 <g>
  <title>Layer 1</title>
  <path id="svg_3" fill="#1b72db" d="m45.277344,316.101562l22.621094,22.625c35.65625,30.183594 79.730468,45.410157 123.882812,45.410157s88.222656,-15.226563 123.878906,-45.410157l22.703125,-22.550781c29.367188,-34.617187 45.417969,-78.039062 45.417969,-123.953125l0,-16l-208,0l0,32l110.582031,0c-3.261719,19.535156 -12.390625,37.566406 -26.679687,51.863282l-0.039063,0.042968c-18.128906,18.117188 -42.234375,28.09375 -67.863281,28.09375c-25.632812,0 -49.730469,-9.984375 -67.867188,-28.09375l-0.039062,-0.042968c-18.117188,-18.128907 -28.09375,-42.230469 -28.09375,-67.863282c0,-25.632812 9.976562,-49.726562 28.09375,-67.863281l0.039062,-0.039063c18.128907,-18.121093 42.234376,-28.097656 67.867188,-28.097656c25.640625,0 49.75,9.992188 67.878906,28.121094l11.3125,11.320312l67.878906,-67.882812l-11.3125,-11.308594c-71.03125,-71.050781 -184.277343,-74.546875 -259.640624,-10.746094l-22.621094,22.625c-60.371094,71.304688 -60.371094,176.449219 0,247.75zm305.71875,-107.878906c-3.105469,31.410156 -15.359375,60.816406 -35.375,85.214844l-22.792969,-22.789062c14.160156,-18.167969 23.136719,-39.570313 25.96875,-62.417969l32.199219,0l0,-0.007813zm-80.800782,85.039063l22.839844,22.839843c-58.6875,48.042969 -143.816406,48.042969 -202.503906,0l22.839844,-22.839843c22.351562,17.417969 49.625,26.960937 78.417968,26.960937c28.789063,0 56.054688,-9.542968 78.40625,-26.960937zm-78.414062,-260.964844c35.949219,0 71.910156,12.015625 101.261719,36.039063l-22.765625,22.757812c-22.34375,-17.421875 -49.699219,-26.871094 -78.496094,-26.871094c-28.792969,0 -56.066406,9.542969 -78.417969,26.960938l-22.839843,-22.839844c29.351562,-24.015625 65.296874,-36.046875 101.257812,-36.046875zm-101.042969,81.511719c-17.414062,22.351562 -26.957031,49.621094 -26.957031,78.414062c0,28.792969 9.542969,56.0625 26.957031,78.417969l-22.839843,22.839844c-48.039063,-58.691407 -48.039063,-143.808594 0,-202.503907l22.839843,22.832032zm0,0"/>
 </g>
</svg>