<svg width="384" height="384" xmlns="http://www.w3.org/2000/svg">

 <g>
  <title>background</title>
  <rect fill="none" id="canvas_background" height="402" width="582" y="-1" x="-1"/>
 </g>
 <g>
  <title>Layer 1</title>
  <path id="svg_2" fill="#1b72db" d="m184,100.03125l-63.175781,-100.03125l-120.824219,0l0,384l136,0l0,-100.03125l63.175781,100.03125l120.824219,0l0,-384l-136,0l0,100.03125zm-80,251.96875l-72,0l0,-232.695312l72,114l0,118.695312zm184,-27.367188l0,27.367188l-71.175781,0l-80.824219,-127.96875l0,-0.023438l-97.230469,-153.917968l-6.769531,-10.722656l0,-27.367188l71.175781,0l80.824219,127.96875l0,0.023438l97.230469,153.929687l6.769531,10.710937zm0,-292.632812l0,232.703125l-72,-114l0,-118.703125l72,0zm0,0"/>
 </g>
</svg>