<svg width="386.6" height="386" xmlns="http://www.w3.org/2000/svg">

 <g>
  <title>background</title>
  <rect fill="none" id="canvas_background" height="402" width="582" y="-1" x="-1"/>
 </g>
 <g>
  <title>Layer 1</title>
  <g id="svg_3" fill="#007aff">
   <path fill="#1b72db" id="svg_4" d="m146.601562,64.300781l32,0l0,-32l176,0l0,320l-176,0l0,-32l-32,0l0,64l240,0l0,-384l-240,0l0,64zm0,0"/>
   <path fill="#1b72db" id="svg_5" d="m178.601562,295.453125c89.6875,-9.023437 139.566407,-91.289063 141.757813,-94.992187l4.839844,-8.167969l-4.839844,-8.167969c-2.191406,-3.6875 -52.070313,-85.953125 -141.757813,-94.976562l-32,0c-89.691406,9.023437 -139.570312,91.289062 -141.761718,94.992187l-4.839844,8.167969l4.839844,8.167968c2.191406,3.6875 52.070312,85.960938 141.761718,94.976563l32,0zm-16,-119.152344c22.589844,0 38.941407,8.679688 48.71875,16c-9.777343,7.320313 -26.128906,16 -48.71875,16c-22.609374,0 -38.96875,-8.695312 -48.722656,-15.992187c9.769532,-7.320313 26.121094,-16.007813 48.722656,-16.007813zm124.6875,16.03125c-13.601562,18.71875 -51.730468,63.457031 -108.6875,70.824219l0,-24.03125c43.992188,-6.113281 67.542969,-35.609375 68.628907,-37l7.632812,-9.824219l-7.632812,-9.824219c-1.085938,-1.390624 -24.636719,-30.886718 -68.628907,-37l0,-24.015624c56.726563,7.40625 95.023438,52.167968 108.6875,70.871093zm-249.378906,-0.0625c13.59375,-18.722656 51.722656,-63.457031 108.691406,-70.824219l0,24.03125c-43.992187,6.113282 -67.546874,35.609376 -68.632812,37l-7.632812,9.824219l7.632812,9.824219c1.085938,1.390625 24.640625,30.886719 68.632812,37l0,24.015625c-56.738281,-7.410156 -95.042968,-52.191406 -108.691406,-70.871094zm0,0"/>
  </g>
 </g>
</svg>