<svg width="411" height="411.76" xmlns="http://www.w3.org/2000/svg">

 <g>
  <title>background</title>
  <rect fill="none" id="canvas_background" height="386.008" width="386" y="-1" x="-1"/>
 </g>
 <g>
  <title>Layer 1</title>
  <g id="svg_2" fill="#007aff">
   <path fill="#1b72db" id="svg_3" d="m32.378906,0l320,0l0,32l-320,0l0,-32zm0,0"/>
   <path fill="#1b72db" id="svg_4" d="m336.378906,64l-122.839844,0l-21.160156,52.910156l-21.167968,-52.910156l-122.832032,0c-26.472656,0 -48,21.527344 -48,48l0,80l32,0l0,-16c0,-8.824219 7.175782,-16 16,-16l45.097656,0l98.902344,251.761719l98.90625,-251.761719l45.09375,0c8.824219,0 16,7.175781 16,16l0,16l32,0l0,-80c0,-26.464844 -21.527344,-48 -48,-48zm0,64l-66.902344,0l-77.097656,196.238281l-77.09375,-196.238281l-66.90625,0c-5.605468,0 -10.992187,0.96875 -16,2.742188l0,-18.742188c0,-8.824219 7.175782,-16 16,-16l101.167969,0l42.832031,107.089844l42.832032,-107.089844l101.167968,0c8.824219,0 16,7.175781 16,16l0,18.742188c-5.007812,-1.773438 -10.390625,-2.742188 -16,-2.742188zm0,0"/>
  </g>
 </g>
</svg>