<svg width="384" height="384" xmlns="http://www.w3.org/2000/svg">

 <g>
  <title>background</title>
  <rect fill="none" id="canvas_background" height="386.008" width="386" y="-1" x="-1"/>
 </g>
 <g>
  <title>Layer 1</title>
  <path id="svg_3" fill="#1b72db" d="m160,334.695312l11.792969,1.074219l20.207031,1.832031l192,17.4375l0,-355.039062l-192,17.441406l-20.207031,1.839844l-11.792969,1.070312l-160,14.558594l0,285.21875l160,14.566406zm192,-14.695312l-160,-14.535156l0,-127.945313l160,0l0,142.480469zm0,-284.960938l0,110.480469l-160,0l0,-95.945312l160,-14.535157zm-320,29.089844l128,-11.648437l0,93.03125l-128,0l0,-81.382813zm0,226.78125l0,-113.390625l128,0l0,125.03125l-128,-11.640625zm0,0"/>
 </g>
</svg>