<svg width="387.12683" height="387" xmlns="http://www.w3.org/2000/svg">

 <g>
  <title>background</title>
  <rect fill="none" id="canvas_background" height="402" width="582" y="-1" x="-1"/>
 </g>
 <g>
  <title>Layer 1</title>
  <path id="svg_2" fill="#1b72db" d="m295.632812,66c-18.007812,-39.800781 -57.863281,-65.9375 -102.105468,-65.9375l-140.191406,0l-53.335938,320l88.265625,0l-10.65625,64l120.4375,0l16,-96l61,0c55.03125,0 101.503906,-39.359375 110.503906,-93.597656c5.175781,-30.960938 -2.503906,-61.714844 -21.605469,-86.585938c-16.875,-21.960937 -41.386718,-36.832031 -68.3125,-41.878906zm-202.058593,222.0625l-55.796875,0l42.664062,-256l113.085938,0c33.992187,0 64.382812,21.570312 75.617187,53.679688c4.398438,12.601562 5.550781,26.226562 3.320313,39.464843c-6.433594,38.746094 -39.625,66.855469 -78.9375,66.855469l-83.953125,0l-16,96zm260.417969,-98.878906l0,0.023437c-6.433594,38.746094 -39.625,66.855469 -78.945313,66.855469l-88.109375,0l-16,96l-55.5625,0l21.3125,-128l56.839844,0c4.425781,0 8.761718,-0.34375 13.058594,-0.839844c45.414062,-5.238281 82.957031,-37.382812 94.941406,-81.542968c1,-3.664063 1.863281,-7.390626 2.496094,-11.214844c0.007812,-0.058594 0.007812,-0.121094 0.015624,-0.175782c0.753907,-4.480468 1.21875,-8.992187 1.410157,-13.523437c0.007812,-0.117187 0.023437,-0.230469 0.023437,-0.351563c0.175782,-4.488281 0.0625,-8.976562 -0.296875,-13.4375c-0.015625,-0.21875 -0.015625,-0.433593 -0.039062,-0.648437c-0.015625,-0.144531 -0.015625,-0.289063 -0.023438,-0.441406c13.0625,5.320312 24.6875,14.074219 33.445313,25.472656c13.648437,17.769531 19.128906,39.71875 15.433594,61.824219zm0,0"/>
 </g>
</svg>