<svg width="416" height="416" xmlns="http://www.w3.org/2000/svg">

 <g>
  <title>background</title>
  <rect fill="none" id="canvas_background" height="402" width="582" y="-1" x="-1"/>
 </g>
 <g>
  <title>Layer 1</title>
  <path id="svg_2" fill="#1b72db" d="m386.238281,200.871094c7.960938,-10.183594 12.761719,-22.96875 12.761719,-36.871094c0,-33.089844 -26.910156,-60 -60,-60c-10.113281,0 -19.632812,2.535156 -28,6.976562l0,-50.976562c0,-33.089844 -26.910156,-60 -60,-60c-21.632812,0 -40.574219,11.542969 -51.128906,28.761719c-10.183594,-7.96875 -22.96875,-12.761719 -36.871094,-12.761719c-33.089844,0 -60,26.910156 -60,60c0,10.113281 2.535156,19.632812 6.976562,28l-50.976562,0c-33.089844,0 -60,26.910156 -60,60c0,21.632812 11.542969,40.574219 28.761719,51.128906c-7.960938,10.191406 -12.761719,22.96875 -12.761719,36.871094c0,33.089844 26.910156,60 60,60c10.113281,0 19.632812,-2.535156 28,-6.976562l0,50.976562c0,33.089844 26.910156,60 60,60c21.632812,0 40.574219,-11.542969 51.128906,-28.761719c10.183594,7.96875 22.96875,12.761719 36.871094,12.761719c33.089844,0 60,-26.910156 60,-60c0,-10.113281 -2.535156,-19.632812 -6.976562,-28l50.976562,0c33.089844,0 60,-26.910156 60,-60c0,-21.632812 -11.542969,-40.574219 -28.761719,-51.128906zm-47.238281,-64.871094c15.441406,0 28,12.558594 28,28s-12.558594,28 -28,28l-28,0l0,-28c0,-15.441406 12.558594,-28 28,-28zm-116,-76c0,-15.441406 12.558594,-28 28,-28s28,12.558594 28,28l0,132l-56,0l0,-132zm-88,16c0,-15.441406 12.558594,-28 28,-28s28,12.558594 28,28l0,28l-28,0c-15.441406,0 -28,-12.558594 -28,-28zm-76,60l132,0l0,56l-132,0c-15.441406,0 -28,-12.558594 -28,-28s12.558594,-28 28,-28zm16,144c-15.441406,0 -28,-12.558594 -28,-28s12.558594,-28 28,-28l28,0l0,28c0,15.441406 -12.558594,28 -28,28zm116,76c0,15.441406 -12.558594,28 -28,28s-28,-12.558594 -28,-28l0,-132l56,0l0,132zm88,-16c0,15.441406 -12.558594,28 -28,28s-28,-12.558594 -28,-28l0,-28l28,0c15.441406,0 28,12.558594 28,28zm76,-60l-132,0l0,-56l132,0c15.441406,0 28,12.558594 28,28s-12.558594,28 -28,28zm0,0"/>
 </g>
</svg>